<?xml version="1.0" encoding="UTF-8" standalone="no"?>
<!-- Created with Inkscape (http://www.inkscape.org/) -->

<svg
   width="112.23609mm"
   height="51.578884mm"
   viewBox="0 0 112.23609 51.578883"
   version="1.1"
   id="svg1"
   inkscape:version="1.3 (0e150ed6c4, 2023-07-21)"
   sodipodi:docname="contractor-logo-type2.svg"
   xmlns:inkscape="http://www.inkscape.org/namespaces/inkscape"
   xmlns:sodipodi="http://sodipodi.sourceforge.net/DTD/sodipodi-0.dtd"
   xmlns="http://www.w3.org/2000/svg"
   xmlns:svg="http://www.w3.org/2000/svg">
  <sodipodi:namedview
     id="namedview1"
     pagecolor="#ffffff"
     bordercolor="#000000"
     borderopacity="0.25"
     inkscape:showpageshadow="2"
     inkscape:pageopacity="0.0"
     inkscape:pagecheckerboard="0"
     inkscape:deskcolor="#d1d1d1"
     inkscape:document-units="mm"
     inkscape:zoom="1.1099335"
     inkscape:cx="383.80679"
     inkscape:cy="101.35743"
     inkscape:window-width="1920"
     inkscape:window-height="1057"
     inkscape:window-x="-8"
     inkscape:window-y="-8"
     inkscape:window-maximized="1"
     inkscape:current-layer="layer1" />
  <defs
     id="defs1">
    <rect
       x="140.15569"
       y="443.40164"
       width="481.62592"
       height="312.16495"
       id="rect1" />
  </defs>
  <g
     inkscape:label="Layer 1"
     inkscape:groupmode="layer"
     id="layer1"
     transform="translate(-29.666288,-132.14983)">
    <g
       id="text1"
       style="font-size:64px;line-height:0.8;font-family:'Balloon Extra';-inkscape-font-specification:'Balloon Extra';text-align:center;letter-spacing:0px;text-anchor:middle;white-space:pre;opacity:0.998852;fill:#808080;stroke:none;stroke-width:6.14551;paint-order:stroke markers fill"
       transform="matrix(0.53745655,0,0,0.53745655,-119.41701,-104.91777)"
       aria-label="HVAC">
      <path
         style="fill:#ff0000;stroke:none"
         d="M 284.96875,448.88301 H 299.125 v 16.03125 h 15.46875 v -16.03125 h 14.21875 v 45.8125 H 314.59375 V 476.16426 H 299.125 v 18.53125 h -14.15625 z"
         id="path14" />
      <path
         style="fill:#000000;stroke:none"
         d="M 333.6875,448.88301 H 348.5 l 10.3125,32.96875 10.15625,-32.96875 h 14.375 l -17,45.8125 H 351 Z"
         id="path15" />
      <path
         style="fill:#2a7fff;stroke:none"
         d="m 416.1875,487.13301 h -16.125 l -2.21875,7.5625 H 383.375 l 17.21875,-45.8125 h 15.4375 l 17.21875,45.8125 h -14.8125 z m -2.96875,-9.90625 -5.0625,-16.46875 -5.03125,16.46875 z m 53.90625,-1.25 12.40625,3.75 q -1.25,5.21875 -3.9375,8.71875 -2.6875,3.5 -6.6875,5.28125 -3.96875,1.78125 -10.125,1.78125 -7.46875,0 -12.21875,-2.15625 -4.71875,-2.1875 -8.15625,-7.65625 -3.4375,-5.46875 -3.4375,-14 0,-11.375 6.03125,-17.46875 6.0625,-6.125 17.125,-6.125 8.65625,0 13.59375,3.5 4.96875,3.5 7.375,10.75 l -12.5,2.78125 q -0.65625,-2.09375 -1.375,-3.0625 -1.1875,-1.625 -2.90625,-2.5 -1.71875,-0.875 -3.84375,-0.875 -4.8125,0 -7.375,3.875 -1.9375,2.875 -1.9375,9.03125 0,7.625 2.3125,10.46875 2.3125,2.8125 6.5,2.8125 4.0625,0 6.125,-2.28125 2.09375,-2.28125 3.03125,-6.625 z"
         id="path16" />
    </g>
    <path
       style="font-weight:normal;font-size:84px;line-height:0.8;font-family:'Emphasis Black Condensed SSi';-inkscape-font-specification:'Emphasis Black Condensed SSi';text-align:center;letter-spacing:0px;white-space:pre;fill:#000000;stroke-width:0.799999;stroke-linecap:round;paint-order:stroke markers fill"
       d="m 41.554052,173.40543 v 5.55625 q -0.293005,0.36897 -0.976685,0.67283 -0.672828,0.30386 -1.443321,0.30386 -1.323951,0 -2.278933,-0.53175 -0.954979,-0.5426 -1.562695,-1.59525 -0.596863,-1.06351 -0.879015,-2.59364 -0.282154,-1.541 -0.282154,-3.63544 0,-1.50844 0.260451,-2.93005 0.271301,-1.42162 0.879014,-2.66961 0.607716,-1.24798 1.595252,-1.98593 0.987537,-0.74878 2.354895,-0.74878 0.737939,0 1.269691,0.22789 0.542602,0.21704 1.0635,0.72708 v 5.26325 h -0.04341 q -0.499195,-1.59525 -1.606106,-1.59525 -0.976683,0 -1.508434,1.00924 -0.531749,1.00924 -0.531749,2.70216 0,1.82314 0.488341,2.77813 0.499195,0.95497 1.334802,0.95497 0.62942,0 1.106911,-0.5426 0.477488,-0.5426 0.716235,-1.36736 z m 4.731494,-1.82314 q 0,1.09606 0.151929,1.95337 0.162782,0.85731 0.477491,1.32395 0.325561,0.45578 0.813903,0.45578 0.477491,0 0.803053,-0.45578 0.336412,-0.46664 0.488341,-1.32395 0.16278,-0.85731 0.16278,-1.95337 0,-1.76888 -0.347266,-2.73472 -0.347266,-0.97668 -1.106908,-0.97668 -0.748792,0 -1.096058,0.97668 -0.347265,0.97669 -0.347265,2.73472 z m -3.733104,0 q 0,-1.53014 0.238744,-2.98431 0.238744,-1.46503 0.824756,-2.68046 0.58601,-1.22628 1.595253,-1.94252 1.02009,-0.72708 2.517674,-0.72708 1.508434,0 2.539381,0.72708 1.030943,0.72709 1.595249,1.92082 0.564309,1.19372 0.803053,2.68045 0.249597,1.47588 0.249597,3.00602 0,2.19211 -0.434083,3.81992 -0.42323,1.61696 -1.139465,2.60449 -0.716235,0.97669 -1.660364,1.45418 -0.933275,0.47749 -1.953368,0.47749 -1.00924,0 -1.942518,-0.46664 -0.922422,-0.47749 -1.660364,-1.47588 -0.727085,-1.00924 -1.150315,-2.61534 -0.42323,-1.60611 -0.42323,-3.79822 z m 11.785327,7.99796 v -15.98507 h 4.199742 l 1.801442,7.52047 h 0.04341 v -7.52047 h 3.418396 v 15.98507 H 59.7855 l -1.801439,-7.73751 h -0.04341 v 7.73751 z m 12.403894,0 v -11.55743 h -1.985925 v -4.42764 h 7.563879 v 4.42764 h -1.985926 v 11.55743 z m 10.135814,-12.06748 v 2.79983 h 0.195337 q 1.204576,0 1.204576,-1.37821 0,-1.42162 -1.22628,-1.42162 z m -3.602881,12.06748 v -15.98507 h 4.069519 q 1.649513,0 2.69131,0.68368 1.041797,0.68368 1.508434,1.88826 0.466638,1.20457 0.466638,2.76727 0,0.95498 -0.26045,1.81229 -0.260448,0.84646 -0.640271,1.38906 -0.37982,0.54261 -0.748792,0.70539 l 1.823146,6.73912 h -3.863329 l -1.226283,-5.70818 q -0.06511,0.0217 -0.119372,0.0326 -0.04341,0.0109 -0.09767,0.0326 v 5.64306 z m 14.509191,-6.40271 -0.510045,-5.66477 h -0.04341 l -0.510048,5.66477 z m -5.426024,6.40271 2.289783,-15.98507 h 5.198131 l 2.289784,15.98507 h -3.689697 l -0.303858,-2.48512 h -1.779735 l -0.314712,2.48512 z m 17.645437,-6.17482 v 5.55625 q -0.293009,0.36897 -0.976687,0.67283 -0.672828,0.30386 -1.443324,0.30386 -1.323948,0 -2.27893,-0.53175 -0.954979,-0.5426 -1.562695,-1.59525 -0.596863,-1.06351 -0.879018,-2.59364 -0.282151,-1.541 -0.282151,-3.63544 0,-1.50844 0.260448,-2.93005 0.271301,-1.42162 0.879017,-2.66961 0.607713,-1.24798 1.595252,-1.98593 0.987536,-0.74878 2.354895,-0.74878 0.737939,0 1.269688,0.22789 0.542605,0.21704 1.063505,0.72708 v 5.26325 h -0.04341 q -0.499195,-1.59525 -1.606103,-1.59525 -0.976686,0 -1.508435,1.00924 -0.531751,1.00924 -0.531751,2.70216 0,1.82314 0.488344,2.77813 0.499195,0.95497 1.334802,0.95497 0.629417,0 1.106908,-0.5426 0.477491,-0.5426 0.716235,-1.36736 z m 2.51767,6.17482 v -11.55743 h -1.98592 v -4.42764 h 7.56388 v 4.42764 h -1.98593 v 11.55743 z m 10.03815,-7.99796 q 0,1.09606 0.15193,1.95337 0.16278,0.85731 0.47749,1.32395 0.32556,0.45578 0.8139,0.45578 0.47749,0 0.80305,-0.45578 0.33642,-0.46664 0.48835,-1.32395 0.16278,-0.85731 0.16278,-1.95337 0,-1.76888 -0.34727,-2.73472 -0.34726,-0.97668 -1.10691,-0.97668 -0.74879,0 -1.09606,0.97668 -0.34726,0.97669 -0.34726,2.73472 z m -3.73311,0 q 0,-1.53014 0.23875,-2.98431 0.23875,-1.46503 0.82476,-2.68046 0.586,-1.22628 1.59525,-1.94252 1.02009,-0.72708 2.51767,-0.72708 1.50844,0 2.53938,0.72708 1.03095,0.72709 1.59525,1.92082 0.56431,1.19372 0.80305,2.68045 0.2496,1.47588 0.2496,3.00602 0,2.19211 -0.43408,3.81992 -0.42323,1.61696 -1.13946,2.60449 -0.71624,0.97669 -1.66037,1.45418 -0.93328,0.47749 -1.95337,0.47749 -1.00924,0 -1.94251,-0.46664 -0.92243,-0.47749 -1.66037,-1.47588 -0.72709,-1.00924 -1.15032,-2.61534 -0.42323,-1.60611 -0.42323,-3.79822 z m 15.38821,-4.06952 v 2.79983 h 0.19534 q 1.20458,0 1.20458,-1.37821 0,-1.42162 -1.22628,-1.42162 z m -3.60288,12.06748 v -15.98507 h 4.06952 q 1.64951,0 2.69131,0.68368 1.04179,0.68368 1.50843,1.88826 0.46664,1.20457 0.46664,2.76727 0,0.95498 -0.26045,1.81229 -0.26045,0.84646 -0.64027,1.38906 -0.37982,0.54261 -0.74879,0.70539 l 1.82315,6.73912 h -3.86334 l -1.22628,-5.70818 q -0.0651,0.0217 -0.11937,0.0326 -0.0434,0.0109 -0.0977,0.0326 v 5.64306 z m 9.97304,-0.71623 v -5.15473 h 0.0434 q 0.19534,0.7922 0.94413,1.36736 0.75965,0.57516 1.49759,0.57516 0.51004,0 0.8139,-0.31471 0.30386,-0.31471 0.30386,-0.69453 0,-0.31471 -0.14108,-0.54261 -0.13023,-0.22789 -0.37982,-0.42323 -0.23875,-0.20619 -0.56431,-0.39067 -0.31471,-0.19534 -0.82476,-0.51005 -1.05264,-0.66197 -1.64951,-1.75803 -0.59686,-1.10691 -0.59686,-2.63704 0,-0.82476 0.26045,-1.73633 0.2713,-0.91158 0.82476,-1.68207 0.55345,-0.7705 1.38906,-1.23714 0.84646,-0.47748 1.96422,-0.47748 0.91157,0 1.54099,0.2713 0.64027,0.2713 1.35651,0.8356 v 4.85087 h -0.0434 q -0.28216,-0.75964 -0.8139,-1.30225 -0.5209,-0.5426 -1.57355,-0.5426 -0.43408,0 -0.73794,0.28215 -0.30386,0.28216 -0.30386,0.69454 0,0.293 0.20619,0.53175 0.20619,0.22789 0.67283,0.53175 0.47749,0.293 1.15031,0.71623 1.03095,0.62942 1.50844,1.60611 0.48834,0.97668 0.48834,2.9409 0,1.51929 -0.5426,2.72387 -0.53175,1.19372 -1.57355,1.8774 -1.0418,0.67283 -2.50682,0.67283 -0.90072,0 -1.62781,-0.30386 -0.72709,-0.293 -1.0852,-0.77049 z"
       id="path13" />
  </g>
</svg>
