<?xml version="1.0" encoding="UTF-8" standalone="no"?>
<!-- Created with Inkscape (http://www.inkscape.org/) -->

<svg
   width="112.72473mm"
   height="47.602795mm"
   viewBox="0 0 112.72473 47.602795"
   version="1.1"
   id="svg1"
   inkscape:version="1.3 (0e150ed6c4, 2023-07-21)"
   sodipodi:docname="contractor-logo-type.svg"
   xmlns:inkscape="http://www.inkscape.org/namespaces/inkscape"
   xmlns:sodipodi="http://sodipodi.sourceforge.net/DTD/sodipodi-0.dtd"
   xmlns="http://www.w3.org/2000/svg"
   xmlns:svg="http://www.w3.org/2000/svg">
  <sodipodi:namedview
     id="namedview1"
     pagecolor="#ffffff"
     bordercolor="#000000"
     borderopacity="0.25"
     inkscape:showpageshadow="2"
     inkscape:pageopacity="0.0"
     inkscape:pagecheckerboard="0"
     inkscape:deskcolor="#d1d1d1"
     inkscape:document-units="mm"
     inkscape:zoom="0.76702441"
     inkscape:cx="196.21279"
     inkscape:cy="142.75947"
     inkscape:window-width="1920"
     inkscape:window-height="1057"
     inkscape:window-x="-8"
     inkscape:window-y="-8"
     inkscape:window-maximized="1"
     inkscape:current-layer="layer1"
     showgrid="false" />
  <defs
     id="defs1">
    <rect
       x="40.415924"
       y="333.75729"
       width="743.13147"
       height="451.09387"
       id="rect1" />
  </defs>
  <g
     inkscape:label="Layer 1"
     inkscape:groupmode="layer"
     id="layer1"
     transform="translate(-52.777004,-83.132404)">
    <g
       id="text1"
       style="font-weight:900;font-size:85.3333px;line-height:0.8;font-family:Arial;-inkscape-font-specification:'Arial Heavy';text-align:center;letter-spacing:0px;white-space:pre;fill:none;stroke-width:3.02362;stroke-linecap:round;paint-order:stroke markers fill"
       transform="scale(0.26458333)"
       aria-label="HVACR&#10;CONTRACTORS">
      <path
         style="fill:#ff0000"
         d="m 215.53418,329.15671 h 23.00391 v 26.05078 h 25.13671 v -26.05078 h 23.10547 v 74.44531 H 263.6748 v -30.11328 h -25.13671 v 30.11328 h -23.00391 z"
         id="path9" />
      <path
         style="font-size:104px;fill:#000000"
         d="m 294.70215,329.15671 h 24.07031 l 16.75781,53.57422 16.50391,-53.57422 h 23.35937 l -27.625,74.44531 h -24.93359 z"
         id="path10" />
      <path
         style="fill:#00c8ff"
         d="m 428.76465,391.31296 h -26.20313 l -3.60547,12.28906 h -23.51171 l 27.98046,-74.44531 h 25.08594 l 27.98047,74.44531 H 432.4209 Z m -4.82422,-16.09766 -8.22656,-26.76171 -8.17578,26.76171 z m 87.59766,-2.03125 20.16015,6.09375 q -2.03125,8.48047 -6.39844,14.16797 -4.36718,5.6875 -10.86718,8.58203 -6.44922,2.89454 -16.45313,2.89454 -12.13672,0 -19.85547,-3.50391 -7.66797,-3.55469 -13.2539,-12.44141 -5.58594,-8.88672 -5.58594,-22.75 0,-18.48437 9.80078,-28.38672 9.85156,-9.95312 27.82813,-9.95312 14.0664,0 22.08984,5.6875 8.07422,5.6875 11.98437,17.46875 l -20.3125,4.51953 q -1.0664,-3.40234 -2.23437,-4.97656 -1.92969,-2.64063 -4.72266,-4.0625 -2.79297,-1.42188 -6.24609,-1.42188 -7.82031,0 -11.98438,6.29688 -3.14843,4.67187 -3.14843,14.67578 0,12.39062 3.75781,17.01172 3.75781,4.57031 10.5625,4.57031 6.60156,0 9.95312,-3.70703 3.40235,-3.70703 4.92579,-10.76563 z"
         id="path11" />
      <path
         style="font-size:104px;fill:#000000"
         d="m 543.1748,403.60202 v -74.44531 h 38.33985 q 10.66406,0 16.30078,1.82813 5.63672,1.82812 9.08984,6.80468 3.45313,4.92578 3.45313,12.03516 0,6.19531 -2.64063,10.71484 -2.64062,4.46875 -7.26172,7.26172 -2.94531,1.77735 -8.07421,2.94531 4.11328,1.3711 5.99218,2.74219 1.26953,0.91406 3.65625,3.91016 2.4375,2.99609 3.25,4.62109 l 11.1211,21.58203 h -26 l -12.28907,-22.75 q -2.33593,-4.41797 -4.16406,-5.73828 -2.48828,-1.72656 -5.63672,-1.72656 h -2.03125 v 30.21484 z m 23.10547,-44.28125 h 9.69922 q 1.57422,0 6.09375,-1.01562 2.28516,-0.45703 3.70703,-2.33594 1.47266,-1.87891 1.47266,-4.31641 0,-3.60546 -2.28516,-5.53515 -2.28515,-1.92969 -8.58203,-1.92969 h -10.10547 z"
         id="path12" />
      <path
         style="font-weight:normal;font-size:84px;font-family:'Emphasis Black Condensed SSi';-inkscape-font-specification:'Emphasis Black Condensed SSi';fill:#000000"
         d="m 243.94043,450.92798 v 21 q -1.10742,1.39453 -3.69141,2.54297 -2.54297,1.14844 -5.45507,1.14844 -5.00391,0 -8.61329,-2.00977 -3.60937,-2.05078 -5.90625,-6.0293 -2.25586,-4.01953 -3.32226,-9.80273 -1.06641,-5.82422 -1.06641,-13.74023 0,-5.70118 0.98438,-11.07422 1.02539,-5.37305 3.32226,-10.08985 2.29688,-4.71679 6.0293,-7.50586 3.73242,-2.83007 8.90039,-2.83007 2.78906,0 4.79883,0.86132 2.05078,0.82032 4.01953,2.74805 v 19.89258 h -0.16406 q -1.88672,-6.0293 -6.07032,-6.0293 -3.6914,0 -5.70117,3.81446 -2.00976,3.81445 -2.00976,10.21289 0,6.89062 1.8457,10.5 1.88672,3.60937 5.04492,3.60937 2.37891,0 4.1836,-2.05078 1.80468,-2.05078 2.70703,-5.16797 z m 17.88281,-6.89062 q 0,4.14257 0.57422,7.38281 0.61524,3.24023 1.80469,5.0039 1.23047,1.72266 3.07617,1.72266 1.80469,0 3.03516,-1.72266 1.27148,-1.76367 1.8457,-5.0039 0.61523,-3.24024 0.61523,-7.38281 0,-6.68555 -1.3125,-10.33594 -1.3125,-3.69141 -4.18359,-3.69141 -2.83008,0 -4.14258,3.69141 -1.3125,3.6914 -1.3125,10.33594 z m -14.10937,0 q 0,-5.78321 0.90234,-11.2793 0.90234,-5.53711 3.11719,-10.13086 2.21484,-4.63477 6.0293,-7.3418 3.85546,-2.74804 9.51562,-2.74804 5.70117,0 9.59766,2.74804 3.89648,2.74805 6.02929,7.25977 2.13282,4.51172 3.03516,10.13086 0.94336,5.57812 0.94336,11.36133 0,8.28515 -1.64063,14.4375 -1.59961,6.11132 -4.30664,9.84375 -2.70703,3.6914 -6.27539,5.49609 -3.52734,1.80469 -7.38281,1.80469 -3.81445,0 -7.3418,-1.76367 -3.48632,-1.80469 -6.27539,-5.57813 -2.74804,-3.81445 -4.34765,-9.88477 -1.59961,-6.07031 -1.59961,-14.35546 z m 44.54297,30.22851 v -60.41601 h 15.87304 l 6.8086,28.42382 h 0.16406 v -28.42382 h 12.91992 v 60.41601 h -15.17578 l -6.80859,-29.24414 h -0.16407 v 29.24414 z m 46.88086,0 v -43.68164 h -7.50586 v -16.73437 h 28.58789 v 16.73437 h -7.50586 v 43.68164 z m 38.30859,-45.60937 v 10.58203 h 0.73828 q 4.55273,0 4.55273,-5.20899 0,-5.37304 -4.63476,-5.37304 z m -13.61719,45.60937 v -60.41601 h 15.38086 q 6.23438,0 10.17188,2.58398 3.9375,2.58398 5.70117,7.13672 1.76367,4.55273 1.76367,10.45898 0,3.60938 -0.98438,6.84961 -0.98437,3.19922 -2.41992,5.25 -1.43554,2.05078 -2.83008,2.66602 l 6.89063,25.4707 h -14.60156 l -4.63477,-21.57422 q -0.24609,0.082 -0.45117,0.12305 -0.16406,0.041 -0.36914,0.12305 v 21.32812 z m 54.83789,-24.19922 -1.92773,-21.41015 h -0.16406 l -1.92774,21.41015 z m -20.50781,24.19922 8.6543,-60.41601 h 19.64648 l 8.6543,60.41601 h -13.94531 l -1.14844,-9.39258 h -6.72656 l -1.18946,9.39258 z m 66.69141,-23.33789 v 21 q -1.10743,1.39453 -3.69141,2.54297 -2.54297,1.14844 -5.45508,1.14844 -5.0039,0 -8.61328,-2.00977 -3.60937,-2.05078 -5.90625,-6.0293 -2.25586,-4.01953 -3.32227,-9.80273 -1.0664,-5.82422 -1.0664,-13.74023 0,-5.70118 0.98437,-11.07422 1.02539,-5.37305 3.32227,-10.08985 2.29687,-4.71679 6.0293,-7.50586 3.73242,-2.83007 8.90039,-2.83007 2.78906,0 4.79882,0.86132 2.05079,0.82032 4.01954,2.74805 v 19.89258 h -0.16407 q -1.88672,-6.0293 -6.07031,-6.0293 -3.69141,0 -5.70117,3.81446 -2.00977,3.81445 -2.00977,10.21289 0,6.89062 1.84571,10.5 1.88672,3.60937 5.04492,3.60937 2.3789,0 4.18359,-2.05078 1.80469,-2.05078 2.70703,-5.16797 z m 9.51562,23.33789 v -43.68164 h -7.50586 v -16.73437 h 28.58789 v 16.73437 h -7.50586 v 43.68164 z m 37.93945,-30.22851 q 0,4.14257 0.57422,7.38281 0.61524,3.24023 1.80469,5.0039 1.23047,1.72266 3.07617,1.72266 1.80469,0 3.03516,-1.72266 1.27148,-1.76367 1.8457,-5.0039 0.61524,-3.24024 0.61524,-7.38281 0,-6.68555 -1.3125,-10.33594 -1.3125,-3.69141 -4.1836,-3.69141 -2.83008,0 -4.14258,3.69141 -1.3125,3.6914 -1.3125,10.33594 z m -14.10937,0 q 0,-5.78321 0.90234,-11.2793 0.90235,-5.53711 3.11719,-10.13086 2.21484,-4.63477 6.0293,-7.3418 3.85547,-2.74804 9.51562,-2.74804 5.70117,0 9.59766,2.74804 3.89648,2.74805 6.0293,7.25977 2.13281,4.51172 3.03515,10.13086 0.94336,5.57812 0.94336,11.36133 0,8.28515 -1.64062,14.4375 -1.59961,6.11132 -4.30664,9.84375 -2.70704,3.6914 -6.2754,5.49609 -3.52734,1.80469 -7.38281,1.80469 -3.81445,0 -7.34179,-1.76367 -3.48633,-1.80469 -6.2754,-5.57813 -2.74804,-3.81445 -4.34765,-9.88477 -1.59961,-6.07031 -1.59961,-14.35546 z m 58.16016,-15.38086 v 10.58203 h 0.73828 q 4.55273,0 4.55273,-5.20899 0,-5.37304 -4.63476,-5.37304 z m -13.61719,45.60937 v -60.41601 h 15.38086 q 6.23437,0 10.17187,2.58398 3.9375,2.58398 5.70117,7.13672 1.76368,4.55273 1.76368,10.45898 0,3.60938 -0.98438,6.84961 -0.98437,3.19922 -2.41992,5.25 -1.43555,2.05078 -2.83008,2.66602 l 6.89063,25.4707 h -14.60157 l -4.63476,-21.57422 q -0.2461,0.082 -0.45117,0.12305 -0.16407,0.041 -0.36914,0.12305 v 21.32812 z m 37.69336,-2.70703 v -19.48242 h 0.16406 q 0.73828,2.99414 3.56836,5.16797 2.87109,2.17383 5.66016,2.17383 1.92773,0 3.07617,-1.18946 1.14843,-1.18945 1.14843,-2.625 0,-1.18945 -0.5332,-2.05078 -0.49219,-0.86133 -1.43555,-1.59961 -0.90234,-0.7793 -2.13281,-1.47656 -1.18945,-0.73828 -3.11719,-1.92774 -3.97851,-2.50195 -6.23437,-6.64453 -2.25586,-4.18359 -2.25586,-9.96679 0,-3.11719 0.98438,-6.5625 1.02539,-3.44532 3.11718,-6.35743 2.0918,-2.9121 5.25,-4.67578 3.19922,-1.80468 7.42383,-1.80468 3.44531,0 5.82422,1.02539 2.41992,1.02539 5.12695,3.1582 v 18.33398 h -0.16406 q -1.06641,-2.87109 -3.07617,-4.92187 -1.96875,-2.05078 -5.94727,-2.05078 -1.64062,0 -2.78906,1.0664 -1.14844,1.06641 -1.14844,2.625 0,1.10743 0.7793,2.00977 0.7793,0.86133 2.54297,2.00977 1.80469,1.10742 4.34765,2.70703 3.89649,2.3789 5.70118,6.07031 1.8457,3.69141 1.8457,11.11523 0,5.74219 -2.05078,10.29493 -2.00977,4.51171 -5.94727,7.0957 -3.9375,2.54297 -9.47461,2.54297 -3.40429,0 -6.15234,-1.14844 -2.74805,-1.10742 -4.10156,-2.91211 z"
         id="path13" />
    </g>
  </g>
</svg>
